<svg width="9" height="7" viewBox="0 0 9 7" fill="none" xmlns="http://www.w3.org/2000/svg">
<path d="M0.266687 3.83335C0.20002 3.76669 0.166687 3.66669 0.166687 3.60002C0.166687 3.53335 0.20002 3.43335 0.266687 3.36669L0.733354 2.90002C0.866687 2.76669 1.06669 2.76669 1.20002 2.90002L1.23335 2.93335L3.06669 4.90002C3.13335 4.96669 3.23335 4.96669 3.30002 4.90002L7.76669 0.266687H7.80002C7.93335 0.133354 8.13335 0.133354 8.26669 0.266687L8.73335 0.733354C8.86669 0.866687 8.86669 1.06669 8.73335 1.20002L3.40002 6.73335C3.33335 6.80002 3.26669 6.83335 3.16669 6.83335C3.06669 6.83335 3.00002 6.80002 2.93335 6.73335L0.333354 3.93335L0.266687 3.83335Z" fill="url(#paint0_linear_83_4435)"/>
<defs>
<linearGradient id="paint0_linear_83_4435" x1="4.50002" y1="0.166687" x2="4.50002" y2="6.83335" gradientUnits="userSpaceOnUse">
<stop stop-color="#FFB45C"/>
<stop offset="1" stop-color="#FFA438"/>
</linearGradient>
</defs>
</svg>
