<svg width="23" height="12" viewBox="0 0 23 12" fill="none" xmlns="http://www.w3.org/2000/svg">
<path d="M2.57994 9.92C2.51365 9.9217 2.44768 9.9102 2.38587 9.88617C2.32407 9.86213 2.26766 9.82604 2.21994 9.78C2.12769 9.68485 2.0761 9.55753 2.0761 9.425C2.0761 9.29247 2.12769 9.16515 2.21994 9.07L3.63994 7.66C3.73277 7.56718 3.85866 7.51503 3.98994 7.51503C4.12122 7.51503 4.24711 7.56718 4.33994 7.66C4.43277 7.75283 4.48491 7.87873 4.48491 8.01C4.48491 8.14128 4.43277 8.26718 4.33994 8.36L2.92994 9.78C2.88373 9.82529 2.82901 9.86098 2.76894 9.885C2.70887 9.90903 2.64463 9.92093 2.57994 9.92ZM19.7799 9.78C19.8722 9.68485 19.9238 9.55753 19.9238 9.425C19.9238 9.29247 19.8722 9.16515 19.7799 9.07L18.3599 7.66C18.2671 7.56718 18.1412 7.51503 18.0099 7.51503C17.8787 7.51503 17.7528 7.56718 17.6599 7.66C17.5671 7.75283 17.515 7.87873 17.515 8.01C17.515 8.14128 17.5671 8.26718 17.6599 8.36L19.0699 9.78C19.1161 9.82529 19.1709 9.86098 19.2309 9.885C19.291 9.90903 19.3552 9.92093 19.4199 9.92C19.4862 9.9217 19.5522 9.9102 19.614 9.88617C19.6758 9.86213 19.7322 9.82604 19.7799 9.78ZM11.4999 11.5V9.5C11.4999 9.36739 11.4473 9.24022 11.3535 9.14645C11.2597 9.05268 11.1325 9 10.9999 9C10.8673 9 10.7402 9.05268 10.6464 9.14645C10.5526 9.24022 10.4999 9.36739 10.4999 9.5V11.5C10.4999 11.6326 10.5526 11.7598 10.6464 11.8536C10.7402 11.9473 10.8673 12 10.9999 12C11.1325 12 11.2597 11.9473 11.3535 11.8536C11.4473 11.7598 11.4999 11.6326 11.4999 11.5ZM21.8899 1.32C21.932 1.26879 21.9635 1.20979 21.9827 1.1464C22.0019 1.083 22.0085 1.01643 22.002 0.950504C21.9955 0.884574 21.9761 0.820571 21.9448 0.762147C21.9136 0.703724 21.8712 0.652024 21.8199 0.610001C21.7687 0.567978 21.7097 0.536454 21.6463 0.51723C21.5829 0.498005 21.5164 0.491456 21.4504 0.497956C21.3845 0.504456 21.3205 0.523878 21.2621 0.555113C21.2037 0.586349 21.152 0.628786 21.1099 0.680002C21.0699 0.740002 16.6899 6 10.9999 6C5.30994 6 0.92994 0.740002 0.88994 0.680002C0.802838 0.579996 0.680817 0.517048 0.548838 0.504036C0.416859 0.491024 0.284894 0.52893 0.17994 0.610001C0.0799342 0.697103 0.0169872 0.819124 0.00397516 0.951104C-0.0090369 1.08308 0.0288694 1.21505 0.10994 1.32C0.29994 1.55 4.82994 7 10.9999 7C17.1699 7 21.6999 1.55 21.8899 1.32Z" fill="#2F303E"/>
</svg>
