<?xml version="1.0" standalone="no"?>
<!DOCTYPE svg PUBLIC "-//W3C//DTD SVG 20010904//EN"
 "http://www.w3.org/TR/2001/REC-SVG-20010904/DTD/svg10.dtd">
<svg version="1.0" xmlns="http://www.w3.org/2000/svg"
 width="128.000000pt" height="128.000000pt" viewBox="0 0 128.000000 128.000000"
 preserveAspectRatio="xMidYMid meet">

<g transform="translate(0.000000,128.000000) scale(0.100000,-0.100000)"
fill="#2F303E" stroke="none">
<path d="M485 1086 c-18 -13 -18 -19 -6 -114 14 -109 31 -140 70 -127 29 9 34
35 20 127 -17 117 -39 147 -84 114z"/>
<path d="M737 1078 c-17 -28 -41 -181 -32 -208 9 -27 43 -35 65 -15 13 12 21
44 31 117 12 95 12 101 -6 114 -27 20 -42 17 -58 -8z"/>
<path d="M232 1008 c-18 -18 -14 -36 31 -128 45 -91 66 -112 95 -94 29 19 25
49 -23 143 -37 75 -49 91 -68 91 -13 0 -28 -5 -35 -12z"/>
<path d="M945 931 c-47 -95 -53 -119 -33 -139 34 -34 63 -8 114 106 41 92 39
114 -9 120 -24 3 -30 -5 -72 -87z"/>
<path d="M16 854 c-9 -8 -16 -23 -16 -32 0 -26 140 -162 167 -162 19 0 43 25
43 45 0 13 -153 165 -166 165 -7 0 -20 -7 -28 -16z"/>
<path d="M1147 791 c-42 -43 -77 -82 -77 -86 0 -20 24 -45 43 -45 27 0 167
136 167 162 0 20 -26 48 -44 48 -7 0 -47 -35 -89 -79z"/>
<path d="M522 775 c-127 -28 -292 -130 -380 -234 -50 -59 -50 -61 29 -140 212
-213 476 -272 716 -159 99 46 234 155 280 225 14 21 12 26 -29 74 -90 106
-254 206 -385 234 -83 18 -148 18 -231 0z m26 -97 c25 -51 -29 -109 -82 -88
-33 12 -42 -14 -26 -79 40 -166 250 -216 358 -86 55 68 64 159 21 233 -12 21
-14 32 -6 32 29 0 162 -86 223 -143 l67 -62 -65 -60 c-76 -69 -149 -116 -234
-147 -84 -32 -244 -32 -328 0 -85 31 -158 78 -234 147 l-65 60 66 62 c72 67
128 103 215 139 66 27 73 27 90 -8z"/>
</g>
</svg>
